<svg width="16" height="11" viewBox="0 0 16 11" fill="none" xmlns="http://www.w3.org/2000/svg">
  <path
    d="M11.9034 6.85288L11.3007 6.92983C10.9393 6.97837 10.6684 7.05414 10.4859 7.15654C10.1778 7.32998 10.0237 7.60641 10.0237 7.98407C10.0237 8.27057 10.1304 8.49728 10.3396 8.66243C10.5493 8.82818 10.7982 8.91105 11.0874 8.91105C11.4388 8.91105 11.7772 8.82995 12.1067 8.66835C12.6625 8.39961 12.9363 7.96394 12.9363 7.34833V6.54684C12.8148 6.6238 12.6578 6.68299 12.467 6.741C12.2756 6.79427 12.0865 6.83097 11.904 6.85347L11.9034 6.85288ZM3.47674 6.22897H6.03082L4.77867 2.64005L3.47674 6.22897ZM15.4074 0H0.592593C0.266667 0 0 0.265189 0 0.591939V10.4081C0 10.7354 0.266667 11 0.592593 11H15.4074C15.7357 11 16 10.7354 16 10.4081V0.591939C16 0.434947 15.9376 0.284385 15.8264 0.173375C15.7153 0.0623649 15.5646 0 15.4074 0ZM7.1923 9.55744L6.34311 7.12458H3.15259L2.27081 9.55804H1.14133L4.20385 1.43249H5.4483L8.39941 9.55804L7.1923 9.55744ZM14.592 9.58527C14.4361 9.62907 14.3194 9.6563 14.2364 9.66814C14.1263 9.6812 14.0155 9.68674 13.9046 9.68471C13.5609 9.68471 13.312 9.56455 13.1567 9.32126C13.075 9.19103 13.0204 9.01049 12.9849 8.77313C12.781 9.0395 12.4907 9.27035 12.1096 9.46569C11.7201 9.66134 11.2893 9.76119 10.8533 9.75693C10.3022 9.75693 9.85185 9.59119 9.50578 9.25733C9.15615 8.92466 8.98133 8.50557 8.98133 8.00656C8.98133 7.45725 9.15318 7.03223 9.4957 6.73094C9.83822 6.42905 10.2898 6.24318 10.8468 6.17333L12.435 5.97444C12.6661 5.94484 12.8184 5.85013 12.8948 5.68794C12.9316 5.60152 12.9559 5.47839 12.9559 5.30555C12.9559 4.96518 12.8356 4.71775 12.5979 4.56444C12.355 4.41054 12.0113 4.33358 11.5609 4.33358C11.0418 4.33358 10.672 4.47565 10.4563 4.75623C10.3348 4.91191 10.2548 5.14336 10.2193 5.45116H9.29304C9.31081 4.71894 9.55259 4.20987 10.0041 3.92278C10.4604 3.63628 10.9867 3.49303 11.5881 3.49303C12.285 3.49303 12.8504 3.62622 13.2853 3.89141C13.7179 4.15659 13.933 4.56977 13.933 5.13033V8.54345C13.933 8.64764 13.9538 8.72873 13.9959 8.79325C14.0373 8.85481 14.128 8.88559 14.2637 8.88559C14.3087 8.88559 14.3585 8.88263 14.4142 8.87672C14.4693 8.8708 14.5268 8.86488 14.592 8.85304V9.58527Z"
    fill="#3768C6" />
</svg>
  