<svg xmlns="http://www.w3.org/2000/svg" height="40" viewBox="0 -960 960 960" width="40"><path d="m385.834-86.667-18.667-124.666q-17.5-6-36.334-16.75-18.833-10.75-33.167-22.084l-115.833 51.334L86.5-366.166l105-77.5q-1.667-8.167-2-17.501-.333-9.333-.333-18.833 0-7.667.416-17.833.417-10.167 2.084-19.834L86.5-594.834 181.833-761.5l117 52q13.333-11 31.584-21.5 18.25-10.5 36.75-16.833L385.834-874H574.5l18.666 124.667q17.334 6.5 35.751 16.916Q647.334-722 661-709.5l117.5-52 95.333 166.666-107 77.167q1.334 9 1.834 18.417.5 9.417.5 19.25t-.5 19.25q-.5 9.417-2 17.917L873-366.166l-95.333 167.333L661-250.834q-13.166 11.167-30.417 21.501-17.25 10.333-37.417 18L574.5-86.667H385.834ZM479.167-350q54 0 92-38t38-92q0-54-38-92t-92-38q-54.5 0-92.25 38t-37.75 92q0 54 37.75 92t92.25 38Z"/></svg>